<?xml version="1.0" encoding="UTF-8"?>
<svg version="1.1" xmlns="http://www.w3.org/2000/svg" width="1024" height="1024">
<path d="M0 0 C337.92 0 675.84 0 1024 0 C1024 337.92 1024 675.84 1024 1024 C686.08 1024 348.16 1024 0 1024 C0 686.08 0 348.16 0 0 Z " fill="#FEF7E9" transform="translate(0,0)"/>
<path d="M0 0 C1.33233673 0.00040787 1.33233673 0.00040787 2.69158936 0.00082397 C16.82392645 0.0207009 30.76707067 0.52944913 44.8125 2.1875 C45.7092041 2.28401855 46.6059082 2.38053711 47.52978516 2.47998047 C81.099239 6.12350166 118.24418545 15.19445736 146.18359375 34.94921875 C148.71844983 36.47060358 148.71844983 36.47060358 151.265625 35.64453125 C153.67520806 34.26604278 156.03483161 32.83184588 158.36303711 31.31982422 C217.9198507 -6.95432036 304.75078984 -6.88229149 371.91943359 7.54980469 C372.87414551 7.76024414 373.82885742 7.97068359 374.8125 8.1875 C375.98248535 8.4443457 377.1524707 8.70119141 378.35791016 8.96582031 C387.20417462 10.92966185 396.01492052 13.01484936 404.8125 15.1875 C405.77349609 15.42114258 406.73449219 15.65478516 407.72460938 15.89550781 C410.11626175 16.4866927 412.49636241 17.10874141 414.875 17.75 C416.12410156 18.08128906 417.37320313 18.41257813 418.66015625 18.75390625 C423.14548765 20.7937038 425.58903939 23.74057878 427.8125 28.1875 C427.89699628 29.9279417 427.91973024 31.67159722 427.91015625 33.4140625 C427.90693359 34.4453125 427.90371094 35.4765625 427.90039062 36.5390625 C427.89201172 37.61929688 427.88363281 38.69953125 427.875 39.8125 C427.87048828 40.90046875 427.86597656 41.9884375 427.86132812 43.109375 C427.84951776 45.80213789 427.83304778 48.49479188 427.8125 51.1875 C429.54886719 51.11789063 429.54886719 51.11789063 431.3203125 51.046875 C432.85934906 51.00933752 434.3984137 50.97293949 435.9375 50.9375 C436.69804688 50.90398437 437.45859375 50.87046875 438.2421875 50.8359375 C443.57891278 50.743925 446.63465284 51.55569365 450.8125 55.1875 C452.70910034 58.22289144 453.05728991 60.50682741 453.03510666 64.05750751 C453.03335422 65.5342795 453.03335422 65.5342795 453.03156638 67.04088527 C453.02008197 68.12014048 453.00859756 69.19939568 452.99676514 70.31135559 C452.99267962 71.45983512 452.9885941 72.60831465 452.98438478 73.79159659 C452.97132301 76.98033815 452.94936181 80.16888044 452.92394757 83.35754287 C452.89886046 86.79674808 452.88559527 90.23599768 452.87147522 93.67526245 C452.8492873 98.86448361 452.82371914 104.05366858 452.79428861 109.24285372 C452.73687369 119.45084442 452.70905299 129.65873577 452.69244385 139.86686707 C452.68970269 141.47494358 452.68695792 143.0830201 452.68420959 144.6910966 C452.67873623 147.94713889 452.67342433 151.2031814 452.66820192 154.4592241 C452.65467572 162.83146304 452.6397603 171.2036975 452.62158203 179.57592773 C452.61886293 180.83614871 452.61886293 180.83614871 452.6160889 182.1218287 C452.58540374 195.71405036 452.5111342 209.30572923 452.42243728 222.89768056 C452.33247687 236.86605283 452.29622538 250.83386862 452.30756879 264.80252761 C452.31275054 273.41001394 452.27570707 282.01517368 452.18347189 290.62217673 C452.12402979 296.53151724 452.11649005 302.43953777 452.1486769 308.34908304 C452.16567477 311.75382136 452.15288312 315.15127256 452.09316444 318.55600929 C451.48319538 335.04383949 451.48319538 335.04383949 458.75909066 349.21470898 C461.13393624 351.60329135 463.60034053 353.79387639 466.23344088 355.89286077 C468.21006055 357.513452 469.82638777 359.33351573 471.4375 361.3125 C473.97331628 364.2677261 476.60349094 367.1190578 479.26342773 369.96191406 C496.61361372 388.53957117 496.61361372 388.53957117 496.22265625 402.12109375 C495.34259666 408.70058688 492.36197501 414.07165191 487.5625 418.625 C481.40411046 423.31015411 474.3755202 424.90705457 466.7109375 424.66015625 C457.16649263 423.10371713 449.9701917 417.32317803 443.8125 410.1875 C442.8225 410.5175 441.8325 410.8475 440.8125 411.1875 C439.42697035 411.27299354 438.03763302 411.30343691 436.64947796 411.29823208 C435.79725649 411.29753953 434.94503501 411.29684699 434.06698865 411.29613346 C433.13042851 411.29029037 432.19386836 411.28444728 431.22892761 411.27842712 C430.23421096 411.27630944 429.2394943 411.27419176 428.21463472 411.27200991 C424.86596095 411.26392224 421.51735167 411.24888725 418.16870117 411.23413086 C415.77408498 411.22734363 413.3794671 411.2211317 410.98484802 411.2154541 C406.4899464 411.20460068 401.99505287 411.19251694 397.50015912 411.17878611 C388.66670903 411.15235189 379.83331852 411.14426323 370.99983215 411.14344788 C369.96977371 411.14330731 369.96977371 411.14330731 368.918906 411.14316391 C363.26336778 411.14244201 357.6078296 411.14243864 351.95229135 411.142664 C346.8574355 411.14282523 341.76258027 411.14231317 336.66772461 411.14086914 C335.94128497 411.14067115 335.21484534 411.14047316 334.46639238 411.14026917 C322.69495721 411.13607057 310.92382063 411.09950468 299.1524907 411.05191296 C287.06791043 411.00388273 274.98371354 410.99384072 262.89906102 411.01825243 C256.11332934 411.03080912 249.32857509 411.02544211 242.54298973 410.97556877 C236.16084239 410.93026153 229.78040317 410.93136241 223.39821815 410.96831512 C221.05443884 410.97359346 218.71054949 410.96171338 216.36695862 410.93152809 C204.59347567 410.16090355 204.59347567 410.16090355 194.20812416 414.34747505 C192.55431044 416.91378162 192.55431044 416.91378162 191.70590687 419.63364506 C188.79704337 427.94879874 178.72436687 432.10490807 171.33984375 435.7421875 C156.28019687 441.91280693 140.69182242 440.12003574 125.88671875 433.97265625 C116.91330924 429.59383549 108.44983921 422.1113271 103.8125 413.1875 C103.8125 412.5275 103.8125 411.8675 103.8125 411.1875 C102.54082694 411.19303076 101.26915388 411.19856152 99.95894527 411.20425987 C69.76892729 411.33421964 39.57898484 411.43314925 9.38875427 411.49389198 C5.6724991 411.50139618 1.95624452 411.50916211 -1.76000977 411.51708984 C-2.49984606 411.51866371 -3.23968235 411.52023757 -4.00193792 411.52185912 C-15.97977428 411.54796384 -27.95743778 411.59526945 -39.93517161 411.65041678 C-52.22633951 411.70653504 -64.5174169 411.73985459 -76.80870765 411.75203097 C-84.39260279 411.76026192 -91.97600934 411.78625342 -99.55975407 411.8349988 C-105.37597418 411.87047784 -111.19188152 411.87422882 -117.00818825 411.86614609 C-119.39347594 411.86779796 -121.77878197 411.8797491 -124.1639595 411.90273285 C-127.42021429 411.9325736 -130.67437642 411.92541422 -133.93067932 411.9090271 C-134.87524461 411.92650415 -135.8198099 411.9439812 -136.79299837 411.96198785 C-142.5855159 411.88315718 -145.68579722 410.76838597 -149.9191851 406.76760256 C-152.48290736 403.57364488 -152.31420951 400.40912128 -152.31892776 396.49118233 C-152.32276891 395.29697139 -152.32661005 394.10276045 -152.3305676 392.8723613 C-152.32970112 391.55380611 -152.32883463 390.23525091 -152.32794189 388.8767395 C-152.33052489 387.46703125 -152.33353787 386.05732372 -152.3369453 384.64761722 C-152.3450261 380.76470642 -152.34680547 376.8818141 -152.34754276 372.99889588 C-152.34939142 368.81475976 -152.35693774 364.63063326 -152.36367798 360.44650269 C-152.37726895 351.29374527 -152.38328706 342.14099224 -152.38768864 332.98822641 C-152.39044946 327.27592151 -152.39468649 321.5636183 -152.39919281 315.85131454 C-152.4113859 300.04300353 -152.42168551 284.23469387 -152.4250679 268.42637825 C-152.42528747 267.41431837 -152.42550703 266.4022585 -152.42573325 265.35953014 C-152.42595153 264.34501953 -152.42616981 263.33050891 -152.4263947 262.28525555 C-152.42683817 260.22939563 -152.42728473 258.1735357 -152.42773438 256.11767578 C-152.4279558 255.09789359 -152.42817723 254.07811139 -152.42840537 253.0274267 C-152.43235504 236.49606676 -152.44981403 219.96475085 -152.4730939 203.43340792 C-152.49678897 186.47067089 -152.50926889 169.50795598 -152.51043582 152.54520214 C-152.51135356 143.01726374 -152.51713078 133.48938273 -152.53525543 123.96146011 C-152.55063148 115.84975187 -152.55579164 107.73811874 -152.54751733 99.6263987 C-152.5436021 95.48605701 -152.54458282 91.34586672 -152.55857468 87.20554352 C-152.57126134 83.41688022 -152.57016253 79.6284829 -152.55798396 75.83982025 C-152.55508488 73.81657815 -152.56700221 71.79333167 -152.57940602 69.77012551 C-152.57281618 68.57069908 -152.56622633 67.37127264 -152.5594368 66.13549995 C-152.56003389 65.10010995 -152.56063097 64.06471995 -152.56124616 62.99795449 C-151.94663673 58.37628335 -149.98599589 55.86795736 -146.4921875 52.890625 C-142.62460765 50.89740418 -139.54681113 50.72414324 -135.3125 50.9375 C-134.62414062 50.95554688 -133.93578125 50.97359375 -133.2265625 50.9921875 C-131.5462619 51.03886252 -129.86668837 51.11059061 -128.1875 51.1875 C-128.20844727 50.52218262 -128.22939453 49.85686523 -128.25097656 49.17138672 C-128.33450609 46.13524698 -128.38627603 43.09934957 -128.4375 40.0625 C-128.47101563 39.01578125 -128.50453125 37.9690625 -128.5390625 36.890625 C-128.59721975 32.29620243 -128.51755128 28.94797898 -126.671875 24.6953125 C-119.86632247 17.82555664 -109.93565278 16.17071737 -100.875 13.75 C-100.14852264 13.55396179 -99.42204529 13.35792358 -98.67355347 13.15594482 C-77.05885968 7.34857115 -55.29233497 3.6814116 -33.02270508 1.4699707 C-31.23727152 1.29208845 -29.45295288 1.10221017 -27.6706543 0.89526367 C-18.47046289 -0.10019012 -9.24245744 -0.01060136 0 0 Z " fill="#3D2B20" transform="translate(360.1875,158.8125)"/>
<path d="M0 0 C1.66963 1.66963 1.13220664 3.68541785 1.1386652 5.98005009 C1.14413964 7.06537716 1.14961409 8.15070423 1.15525442 9.26892 C1.15623253 10.47609208 1.15721064 11.68326416 1.15821838 12.92701721 C1.16315636 14.19785642 1.16809434 15.46869563 1.17318195 16.77804512 C1.18681637 20.32167196 1.19419667 23.86528916 1.20060861 27.40893543 C1.20858938 31.22423431 1.22229509 35.03951298 1.23532104 38.85479736 C1.2571169 45.47041252 1.27524996 52.08602969 1.29092598 58.70166206 C1.31359638 68.26686677 1.34174307 77.83204912 1.37124526 87.39723491 C1.41895596 102.91447162 1.46221068 118.43171746 1.50268555 133.94897461 C1.54202281 149.02645579 1.58344476 164.10392886 1.62768555 179.18139648 C1.63040982 180.11008939 1.63313409 181.03878229 1.63594092 181.9956174 C1.6496201 186.65439302 1.66334043 191.31316853 1.67708123 195.97194397 C1.79110062 234.64794578 1.89789785 273.323965 2 312 C-2.05896301 310.42599385 -5.70717881 308.5191399 -9.5 306.375 C-75.20033464 270.69058801 -164.63131243 275.20639718 -234.72119141 294.41503906 C-237.12633877 295.03243065 -239.56509632 295.51301926 -242 296 C-242 193.04 -242 90.08 -242 -16 C-206.79274136 -25.3886023 -206.79274136 -25.3886023 -193.9375 -27.375 C-193.1951712 -27.49385559 -192.45284241 -27.61271118 -191.6880188 -27.73516846 C-128.62053587 -37.7845244 -55.39464302 -35.02370978 0 0 Z " fill="#FEF7E9" transform="translate(497,214)"/>
<path d="M0 0 C1.06804367 -0.0033284 2.13608734 -0.0066568 3.23649597 -0.01008606 C5.48960952 -0.01512291 7.74273044 -0.01749539 9.99584961 -0.01733398 C13.37041217 -0.01950071 16.74463656 -0.03763698 20.11914062 -0.05664062 C37.85333061 -0.10335688 55.28201698 1.03185309 72.79296875 3.91796875 C73.81632324 4.08425781 74.83967773 4.25054687 75.89404297 4.421875 C93.03779084 7.3169164 109.81590015 11.69075046 126.60546875 16.16796875 C126.93546875 48.50796875 127.26546875 80.84796875 127.60546875 114.16796875 C123.60546875 109.16796875 123.60546875 109.16796875 121.78125 106.84375 C119.74745035 104.26419279 117.684163 101.7114873 115.60546875 99.16796875 C114.93644531 98.348125 114.26742187 97.52828125 113.578125 96.68359375 C95.40159251 75.42686675 68.32340304 62.56415712 40.60546875 60.16796875 C25.52581062 59.25492842 11.08047886 59.63584586 -3.39453125 64.16796875 C-4.07128906 64.37695801 -4.74804688 64.58594727 -5.4453125 64.80126953 C-20.21608855 69.5142203 -33.73942695 76.92500166 -45.39453125 87.16796875 C-46.21179688 87.84214844 -47.0290625 88.51632812 -47.87109375 89.2109375 C-63.75196114 102.70721644 -74.2506272 121.44305242 -80.39453125 141.16796875 C-80.60480957 141.81830078 -80.81508789 142.46863281 -81.03173828 143.13867188 C-90.0915914 172.26219021 -84.70992569 204.23060091 -71.08203125 230.85546875 C-55.67403929 258.46145434 -30.63523074 277.58465838 -0.39453125 286.16796875 C26.57685187 292.92769979 55.21129104 290.04092915 79.8359375 277.20703125 C83.14043894 275.96726061 84.33557168 275.85597301 87.60546875 277.16796875 C89.84698373 278.98758527 91.87024935 280.77816991 93.91796875 282.79296875 C97.58663305 286.37579505 101.01936505 289.46257615 105.35546875 292.23046875 C107.55001325 294.05925584 108.4700919 295.38843611 108.9609375 298.21484375 C109.25113712 301.56582799 109.37173433 304.87727246 109.30761719 308.24047852 C109.23846009 313.79479765 109.94789338 316.71029876 113.60546875 321.16796875 C114.34796875 322.11671875 115.09046875 323.06546875 115.85546875 324.04296875 C116.43296875 324.74421875 117.01046875 325.44546875 117.60546875 326.16796875 C111.68118573 325.56463686 105.97840023 324.42825478 100.16479492 323.14916992 C88.25857536 320.53999434 76.38362909 318.3971277 64.29296875 316.85546875 C63.06247803 316.69651123 61.8319873 316.53755371 60.56420898 316.3737793 C45.4338551 314.52504458 30.39206573 313.95801206 15.16796875 313.98046875 C13.92481903 313.98187363 13.92481903 313.98187363 12.65655518 313.98330688 C-31.43149389 314.09063754 -73.98238776 321.03636207 -112.4296875 343.48046875 C-115.39453125 345.16796875 -115.39453125 345.16796875 -116.39453125 345.16796875 C-116.73790586 305.57454113 -117.00219567 265.98130764 -117.16051119 226.38668839 C-117.17927167 221.71164724 -117.19868651 217.03660903 -117.21850586 212.36157227 C-117.22244052 211.43086125 -117.22637517 210.50015024 -117.23042906 209.54123586 C-117.29568998 194.47338666 -117.41395161 179.40639636 -117.55182319 164.33905662 C-117.69212499 148.87710709 -117.77541828 133.41560718 -117.80585867 117.95304722 C-117.82643641 108.41211966 -117.89140313 98.87361956 -118.01327825 89.3334394 C-118.09260677 82.79019246 -118.11652632 76.24819912 -118.09705191 69.70450629 C-118.08744613 65.92865549 -118.10208953 62.15704203 -118.18261337 58.38194656 C-118.63022539 36.32787202 -118.63022539 36.32787202 -114.93004155 31.09807658 C-110.92780878 27.41404165 -106.51250815 25.7972052 -101.39453125 24.16796875 C-99.53177355 23.26759097 -97.67888783 22.34569219 -95.84765625 21.3828125 C-94.12043102 20.60756764 -92.38581782 19.84859235 -90.64453125 19.10546875 C-89.19735718 18.487323 -89.19735718 18.487323 -87.72094727 17.85668945 C-60.22702351 6.46255397 -29.80359171 0.03323021 0 0 Z " fill="#FDF6E9" transform="translate(638.39453125,181.83203125)"/>
<path d="M0 0 C18.28490643 15.32977004 30.97827172 35.77765832 34.25585938 59.63085938 C35.68525557 79.53723311 34.00402407 97.54620312 25.25585938 115.63085938 C24.815 116.55253906 24.37414062 117.47421875 23.91992188 118.42382812 C20.25249869 125.60670944 15.60483353 131.6188633 10.25585938 137.63085938 C9.24072266 138.78908203 9.24072266 138.78908203 8.20507812 139.97070312 C-7.42668532 156.72112384 -29.57451969 165.75757664 -52.25976562 166.79101562 C-75.87441992 167.46938012 -99.18163527 159.58895967 -116.74414062 143.63085938 C-117.64777344 142.82003906 -118.55140625 142.00921875 -119.48242188 141.17382812 C-135.92544859 125.64051243 -146.80528388 103.40834029 -147.74414062 80.63085938 C-147.80408203 79.30441406 -147.80408203 79.30441406 -147.86523438 77.95117188 C-148.40815478 53.87105507 -141.05827277 30.58814152 -124.74414062 12.63085938 C-123.94492187 11.73882812 -123.14570312 10.84679687 -122.32226562 9.92773438 C-90.8217943 -23.43667016 -36.5857579 -28.71961511 0 0 Z " fill="#FDF6E9" transform="translate(723.744140625,282.369140625)"/>
<path d="M0 0 C2.17190739 1.89692341 4.0543872 3.85982592 6 6 C6.28875 4.72125 6.5775 3.4425 6.875 2.125 C7.54102483 -0.82453855 7.80202597 -1.80202597 10 -4 C13.96048822 -4.45655797 17.9537381 -4.32402042 21.9375 -4.3125 C23.04802734 -4.32861328 24.15855469 -4.34472656 25.30273438 -4.36132812 C26.89891602 -4.36229492 26.89891602 -4.36229492 28.52734375 -4.36328125 C29.99288696 -4.36775269 29.99288696 -4.36775269 31.48803711 -4.37231445 C34 -4 34 -4 35.63318825 -2.88002777 C37.64480562 -0.11308016 37.37769572 2.05500662 37.38095093 5.45275879 C37.3856309 6.1106573 37.39031087 6.7685558 37.39513266 7.44639063 C37.40711751 9.6552195 37.39761234 11.86343193 37.38818359 14.07226562 C37.39224777 15.65403099 37.39758878 17.23579353 37.40411377 18.81755066 C37.41781163 23.11709466 37.4124786 27.41642314 37.40297651 31.71597099 C37.39539267 36.21092189 37.40242197 40.70585406 37.40713501 45.20080566 C37.41259629 52.7499524 37.4053912 60.29901115 37.39111328 67.84814453 C37.37478604 76.5817916 37.38007428 85.31522859 37.3965925 94.04887056 C37.41019677 101.54107861 37.41213222 109.03322333 37.40427649 116.52543974 C37.39959413 121.00298221 37.39899052 125.48042587 37.40888596 129.95796204 C37.41753798 134.16704986 37.4115662 138.37586626 37.39420319 142.5849247 C37.39022887 144.13171754 37.39138849 145.67853314 37.39799118 147.225317 C37.4061599 149.33293577 37.39594311 151.43967862 37.38095093 153.54724121 C37.37981985 154.72784874 37.37868877 155.90845627 37.37752342 157.12483978 C37 160 37 160 35.63219643 161.88002777 C33.25922097 163.50830398 31.41854063 163.37205229 28.5625 163.36328125 C27.50289062 163.36263672 26.44328125 163.36199219 25.3515625 163.36132812 C24.24554687 163.34521484 23.13953125 163.32910156 22 163.3125 C20.89398437 163.31572266 19.78796875 163.31894531 18.6484375 163.32226562 C10.40061924 163.26707949 10.40061924 163.26707949 7 161 C6.60127258 158.55758667 6.60127258 158.55758667 6.56762695 155.44873047 C6.54783279 154.28767792 6.52803864 153.12662537 6.50764465 151.9303894 C6.50125473 150.67203278 6.49486481 149.41367615 6.48828125 148.1171875 C6.47033005 146.83264679 6.45237885 145.54810608 6.43388367 144.22463989 C6.38631108 140.80850339 6.35654927 137.39243324 6.33044434 133.97607422 C6.30067498 130.49042651 6.25413238 127.00500769 6.20898438 123.51953125 C6.1228692 116.67981772 6.05556074 109.84002805 6 103 C5.21314819 103.71772583 5.21314819 103.71772583 4.41040039 104.44995117 C3.70906982 105.07877197 3.00773926 105.70759277 2.28515625 106.35546875 C1.59558838 106.97832764 0.90602051 107.60118652 0.19555664 108.24291992 C-11.11303464 117.29306242 -26.29356915 117.00116093 -40 116 C-53.69678611 113.73303937 -64.85478232 106.11433212 -73 95 C-84.0661985 76.88727248 -85.63239675 54.68932301 -80.90625 34.296875 C-78.44399629 25.33936581 -74.78999296 18.28843834 -69 11 C-68.44957031 10.29875 -67.89914062 9.5975 -67.33203125 8.875 C-51.67402233 -8.82235225 -19.72875117 -13.28402579 0 0 Z " fill="#3C2B20" transform="translate(627,700)"/>
<path d="M0 0 C2.50600261 1.89132272 4.36515202 3.92725199 6.0703125 6.5625 C6.25207031 5.49708984 6.25207031 5.49708984 6.4375 4.41015625 C6.60507812 3.49105469 6.77265625 2.57195313 6.9453125 1.625 C7.10773438 0.70847656 7.27015625 -0.20804688 7.4375 -1.15234375 C7.64632812 -1.90644531 7.85515625 -2.66054688 8.0703125 -3.4375 C12.18893541 -5.49681145 17.54390295 -4.62239262 22.0703125 -4.625 C23.18921875 -4.63724609 24.308125 -4.64949219 25.4609375 -4.66210938 C27.06195312 -4.66500977 27.06195312 -4.66500977 28.6953125 -4.66796875 C29.67757812 -4.67207764 30.65984375 -4.67618652 31.671875 -4.68041992 C34.0703125 -4.4375 34.0703125 -4.4375 36.0703125 -2.4375 C36.32478809 0.34864044 36.32478809 0.34864044 36.33100891 3.97766113 C36.33674723 4.97653626 36.33674723 4.97653626 36.34260148 5.99559069 C36.35295879 8.23737406 36.34893428 10.4789026 36.3449707 12.72070312 C36.34931564 14.32364643 36.35449806 15.92658765 36.36045837 17.52952576 C36.37388223 21.89099605 36.37442336 26.25237987 36.37189507 30.61386681 C36.37082778 34.24982102 36.37570244 37.88575757 36.3805005 41.52170801 C36.39160711 50.09602834 36.39202642 58.67030486 36.38598633 67.24462891 C36.37994254 76.10266536 36.39226515 84.96054312 36.4135564 93.81855249 C36.43114326 101.413476 36.43717843 109.00834886 36.43391865 116.60329199 C36.43210119 121.14398351 36.43478793 125.68456182 36.44863319 130.22523499 C36.46115989 134.49338616 36.45931676 138.76128899 36.44622231 143.02943611 C36.44384576 144.59922937 36.44662949 146.16903984 36.45484543 147.7388134 C36.46522432 149.87528146 36.45728524 152.01090236 36.4445343 154.14733887 C36.44470204 155.3449157 36.44486979 156.54249252 36.44504261 157.77635956 C36.32138167 158.6957859 36.19772074 159.61521225 36.0703125 160.5625 C31.39758089 163.67765441 26.56608286 162.93109467 21.0703125 162.9375 C19.96429687 162.96199219 18.85828125 162.98648438 17.71875 163.01171875 C16.65914062 163.01558594 15.59953125 163.01945313 14.5078125 163.0234375 C13.53714844 163.03165527 12.56648437 163.03987305 11.56640625 163.04833984 C9.0703125 162.5625 9.0703125 162.5625 7.44132996 160.87606812 C5.77542355 158.06488003 5.67527127 156.31490457 5.63793945 153.05957031 C5.61814529 151.95873108 5.59835114 150.85789185 5.57795715 149.72369385 C5.57156723 148.54128113 5.56517731 147.35886841 5.55859375 146.140625 C5.54064255 144.92550232 5.52269135 143.71037964 5.50419617 142.45843506 C5.45000392 138.57649203 5.4161678 134.69467259 5.3828125 130.8125 C5.34964742 128.18097235 5.31515853 125.54946103 5.27929688 122.91796875 C5.1942721 116.46625665 5.12595979 110.01452873 5.0703125 103.5625 C4.60134552 103.97654587 4.13237854 104.39059174 3.64920044 104.81718445 C3.02778168 105.35922012 2.40636292 105.9012558 1.76611328 106.4597168 C1.1527713 106.99751266 0.53942932 107.53530853 -0.09249878 108.08940125 C-2.56743319 110.07385867 -5.10860516 111.22502791 -8.0546875 112.375 C-9.04726563 112.77332031 -10.03984375 113.17164063 -11.0625 113.58203125 C-23.87185649 117.96234253 -40.69774004 117.12402702 -52.9296875 111.5625 C-66.05804841 104.79007658 -74.75522539 95.25465973 -79.8671875 81.375 C-80.58688279 79.1141641 -81.27787781 76.84383391 -81.9296875 74.5625 C-82.17460938 73.74652344 -82.41953125 72.93054688 -82.671875 72.08984375 C-87.15273151 54.19710851 -83.54294712 33.78024361 -74.44921875 17.9921875 C-71.68557827 13.68687611 -68.74279415 10.00359624 -64.9296875 6.5625 C-64.44113281 6.08167969 -63.95257812 5.60085938 -63.44921875 5.10546875 C-46.89422956 -10.42712206 -18.76402872 -12.0668995 0 0 Z " fill="#3C2B20" transform="translate(825.9296875,700.4375)"/>
<path d="M0 0 C0.66 0 1.32 0 2 0 C2.00059709 0.61981676 2.00119418 1.23963351 2.00180936 1.8782326 C2.03769404 38.60394123 2.09431871 75.32956336 2.17792095 112.05519549 C2.18793855 116.46371723 2.19778266 120.87223935 2.20751953 125.28076172 C2.2094609 126.1584286 2.21140228 127.03609548 2.21340248 127.94035833 C2.24443363 142.15619283 2.26140624 156.37201118 2.27319422 170.58787318 C2.28560001 185.17188831 2.31308845 199.75581862 2.35461307 214.33978021 C2.37976489 223.34074208 2.39311605 232.3415633 2.39142957 241.34256081 C2.39139984 247.51274375 2.40600476 253.68278329 2.43216428 259.85291035 C2.44682931 263.41416191 2.45499707 266.97511937 2.44580269 270.53639603 C2.43600452 274.39682002 2.45700063 278.25672624 2.48101807 282.11709595 C2.47325765 283.2435577 2.46549723 284.37001945 2.45750165 285.5306164 C2.5249432 291.6344167 2.84105576 295.38938954 7 300 C14.42009257 303.71004629 24.42368481 300.09735622 31.8125 297.875 C65.81647459 288.23064826 100.33743476 283.76869804 135.625 283.8125 C136.4552771 283.81277191 137.2855542 283.81304382 138.14099121 283.81332397 C151.18376683 283.83289973 164.05973729 284.23992595 177 286 C177.74411133 286.09651855 178.48822266 286.19303711 179.25488281 286.29248047 C208.99373981 290.2729121 244.33229328 298.76209047 266 321 C270.54973365 325.61567182 274.05462334 327.42294969 280.625 327.625 C287.09608072 327.2828509 290.13830465 325.66330051 294.859375 321.26953125 C330.17860199 288.97950804 384.88972669 281.96885475 431 284 C432.03350586 284.04253906 433.06701172 284.08507812 434.13183594 284.12890625 C462.26520708 285.40435115 490.07994087 289.5168864 517.5546875 295.62109375 C521.5720563 296.51140713 525.55893262 297.27036514 529.6328125 297.84765625 C540.02473513 299.40481644 545.76142308 301.93301114 552.26171875 310.41796875 C554 313 554 313 554 314 C474.8 314.33 395.6 314.66 314 315 C312.35 318.96 310.7 322.92 309 327 C304.38069118 333.98466918 298.22478369 339.84179958 290 342 C279.30135198 343.62258268 269.98119088 342.42126546 261 336 C255.61855695 331.63035719 253.51196996 325.97264626 251.17578125 319.57421875 C250.14279031 316.7150295 250.14279031 316.7150295 247 315 C244.99723643 314.69732124 244.99723643 314.69732124 242.77336597 314.73828697 C241.90672258 314.73082073 241.04007919 314.72335449 240.14717388 314.715662 C239.19511971 314.71759748 238.24306555 314.71953297 237.26216125 314.7215271 C236.25340439 314.71574142 235.24464752 314.70995575 234.20532227 314.70399475 C230.79871517 314.68690037 227.39224238 314.68412089 223.9855957 314.68115234 C221.5121868 314.67174718 219.03878109 314.66146887 216.56537914 314.6503849 C210.59958508 314.62582771 204.6338298 314.61021004 198.66800128 314.59880099 C191.76898451 314.58516694 184.87004904 314.55883039 177.97106934 314.5324707 C159.75158065 314.46914993 141.53203513 314.42313917 123.3125 314.375 C82.619375 314.25125 41.92625 314.1275 0 314 C0 210.38 0 106.76 0 0 Z " fill="#C09763" transform="translate(230,233)"/>
<path d="M0 0 C1.66192383 -0.00386719 1.66192383 -0.00386719 3.35742188 -0.0078125 C4.51951172 -0.00007812 5.68160156 0.00765625 6.87890625 0.015625 C8.03712891 0.00789062 9.19535156 0.00015625 10.38867188 -0.0078125 C11.49791016 -0.00523437 12.60714844 -0.00265625 13.75 0 C15.27838501 0.00338379 15.27838501 0.00338379 16.83764648 0.00683594 C19.44140625 0.265625 19.44140625 0.265625 22.44140625 2.265625 C22.8021698 4.82192993 22.8021698 4.82192993 22.78198242 8.09228516 C22.78175583 9.31339996 22.78152924 10.53451477 22.78129578 11.79263306 C22.76597477 13.12998823 22.75032676 14.4673397 22.734375 15.8046875 C22.72878047 17.16945938 22.72450969 18.53423728 22.72151184 19.89901733 C22.71005165 23.49292607 22.68057496 27.08647167 22.6473999 30.68023682 C22.61672396 34.3466704 22.60301184 38.0131626 22.58789062 41.6796875 C22.55570589 48.87516564 22.50449597 56.07034446 22.44140625 63.265625 C23.10140625 63.265625 23.76140625 63.265625 24.44140625 63.265625 C24.71984375 62.21375 24.71984375 62.21375 25.00390625 61.140625 C28.56900601 54.01042548 36.16942085 50.03299534 43.4921875 47.578125 C55.71708227 44.35987117 69.06177594 45.70746443 80.25390625 51.578125 C89.72017936 57.35357683 96.06148667 64.48045806 99.09057617 75.38427734 C101.14712365 84.08598207 100.85396113 92.85532372 100.8046875 101.7421875 C100.80416793 103.60354614 100.80468938 105.46490533 100.80619812 107.32626343 C100.80610898 111.20082941 100.79578951 115.07518477 100.77758789 118.94970703 C100.75474339 123.92202228 100.75439131 128.89403484 100.76110554 133.86638832 C100.76443843 137.69756783 100.75783093 141.52867786 100.7479763 145.35984421 C100.74412414 147.19472262 100.74297616 149.02960874 100.74456215 150.86449051 C100.74493141 153.41583432 100.73235731 155.96678194 100.71606445 158.51806641 C100.71854187 159.27748535 100.72101929 160.0369043 100.72357178 160.81933594 C100.67016905 166.0368622 100.67016905 166.0368622 98.44140625 168.265625 C95.859375 168.52441406 95.859375 168.52441406 92.62890625 168.53125 C91.47132813 168.53382813 90.31375 168.53640625 89.12109375 168.5390625 C87.90679687 168.53132812 86.6925 168.52359375 85.44140625 168.515625 C84.22710937 168.52335938 83.0128125 168.53109375 81.76171875 168.5390625 C80.02535156 168.53519531 80.02535156 168.53519531 78.25390625 168.53125 C77.18785156 168.52899414 76.12179687 168.52673828 75.0234375 168.52441406 C72.44140625 168.265625 72.44140625 168.265625 70.44140625 166.265625 C70.18984985 163.32777405 70.18984985 163.32777405 70.18603516 159.51196289 C70.1824147 158.81732941 70.17879425 158.12269592 70.17506409 157.40701294 C70.16816109 155.8950488 70.16566634 154.3830597 70.16701126 152.8710804 C70.16797643 150.46917578 70.1550314 148.06771891 70.13803101 145.6658783 C70.09178585 138.83547558 70.06719833 132.00511431 70.06054688 125.17456055 C70.05549723 120.99639643 70.03106267 116.81869189 69.99522018 112.64068413 C69.98549035 111.05609348 69.98305259 109.47143899 69.98839188 107.88682747 C70.12600377 93.41138527 70.12600377 93.41138527 64.10049438 80.5660553 C58.57284916 75.4465555 51.49962669 74.73794507 44.2890625 74.88671875 C38.20522047 75.6962286 32.66723792 78.54195765 28.50390625 83.078125 C23.16248108 91.33305481 23.01110399 98.87494685 23.03071594 108.38444138 C23.03522618 110.76345033 23.02110907 113.14172818 23.00231934 115.5206604 C22.9594883 121.41978378 22.94824952 127.3188879 22.93609619 133.21813965 C22.92458763 138.22234494 22.90111537 143.22621081 22.86140442 148.2302742 C22.84780509 150.57589068 22.85200741 152.92105252 22.85681152 155.26669312 C22.84747734 156.69651887 22.83731016 158.12633951 22.82617188 159.55615234 C22.82411743 160.80665375 22.82206299 162.05715515 22.81994629 163.34555054 C22.69502808 164.30917511 22.57010986 165.27279968 22.44140625 166.265625 C19.02842977 168.54094266 17.7600972 168.52237179 13.75 168.53125 C12.08614258 168.53511719 12.08614258 168.53511719 10.38867188 168.5390625 C9.23044922 168.53132812 8.07222656 168.52359375 6.87890625 168.515625 C5.71681641 168.52335938 4.55472656 168.53109375 3.35742188 168.5390625 C2.24947266 168.53648437 1.14152344 168.53390625 0 168.53125 C-1.01779541 168.52899414 -2.03559082 168.52673828 -3.08422852 168.52441406 C-5.55859375 168.265625 -5.55859375 168.265625 -7.55859375 166.265625 C-7.81027603 163.46386719 -7.81027603 163.46386719 -7.81256104 159.8125 C-7.81568102 159.14249969 -7.818801 158.47249939 -7.82201552 157.78219604 C-7.83002278 155.52658411 -7.82366143 153.27123917 -7.81738281 151.015625 C-7.82009147 149.40283042 -7.82365169 147.79003708 -7.82800293 146.17724609 C-7.83714413 141.78890976 -7.83357558 137.40066714 -7.82724476 133.0123291 C-7.8221937 128.4274876 -7.82687371 123.84265431 -7.83001709 119.2578125 C-7.83365935 111.55727696 -7.82885083 103.85677973 -7.81933594 96.15625 C-7.80845089 87.24371266 -7.81197628 78.33126681 -7.82298875 69.41873169 C-7.83205423 61.77710179 -7.83335053 54.1354995 -7.82811141 46.49386597 C-7.82498763 41.92525736 -7.82459351 37.35669181 -7.83118439 32.78808594 C-7.83694651 28.49371033 -7.83298187 24.1994531 -7.82139587 19.90509033 C-7.81874319 18.32562456 -7.81952469 16.74614889 -7.8239212 15.16668701 C-7.82935429 13.01723853 -7.82257023 10.86817377 -7.81256104 8.71875 C-7.81180698 7.51379883 -7.81105293 6.30884766 -7.81027603 5.06738281 C-7.33562077 -0.21653737 -4.60618496 0.01020923 0 0 Z " fill="#3B2A1F" transform="translate(423.55859375,646.734375)"/>
<path d="M0 0 C9.20236035 7.32400549 13.50501232 16.50371436 15 28 C15.37594475 34.27108705 15.28205948 40.5642682 15.265625 46.84375 C15.26697405 48.66312715 15.26891659 50.48250396 15.27142334 52.30187988 C15.27435729 56.0941922 15.2701289 59.88640971 15.26074219 63.67871094 C15.24928323 68.54569685 15.25595847 73.41246373 15.26788712 78.27944183 C15.27509703 82.02654691 15.27282293 85.77359956 15.26763153 89.52070618 C15.26629599 91.31651333 15.26793941 93.11232521 15.27259064 94.90812683 C15.27764869 97.40697987 15.26995901 99.90547094 15.25878906 102.40429688 C15.26283752 103.14815643 15.26688599 103.89201599 15.27105713 104.65841675 C15.22854272 109.77145728 15.22854272 109.77145728 13 112 C10.50976562 112.25878906 10.50976562 112.25878906 7.40625 112.265625 C6.29378906 112.26820313 5.18132812 112.27078125 4.03515625 112.2734375 C2.86855469 112.26570312 1.70195312 112.25796875 0.5 112.25 C-0.66660156 112.25773438 -1.83320313 112.26546875 -3.03515625 112.2734375 C-4.14761719 112.27085937 -5.26007813 112.26828125 -6.40625 112.265625 C-7.43041016 112.26336914 -8.45457031 112.26111328 -9.50976562 112.25878906 C-12 112 -12 112 -14 110 C-14.4140625 107.6171875 -14.4140625 107.6171875 -14.625 104.875 C-14.73714844 103.50988281 -14.73714844 103.50988281 -14.8515625 102.1171875 C-14.90054688 101.41851563 -14.94953125 100.71984375 -15 100 C-15.53367187 100.53109375 -16.06734375 101.0621875 -16.6171875 101.609375 C-28.03309859 112.43276476 -39.45612088 113.47810516 -54.54296875 113.27734375 C-65.91830372 112.8892191 -73.92901699 108.18623262 -81.75 100.1875 C-88.12333001 91.15861583 -89.92344356 81.93410705 -89 71 C-87.27062498 62.79373001 -83.4880075 56.33123097 -77 51 C-61.34147987 41.10027141 -44.44121486 39.8065854 -26.375 39.9375 C-24.58255859 39.94426758 -24.58255859 39.94426758 -22.75390625 39.95117188 C-19.83588353 39.96284397 -16.91796963 39.97921674 -14 40 C-15.16369689 28.32626126 -15.16369689 28.32626126 -21.3125 18.75 C-28.2935687 14.20418782 -35.92126164 14.13111967 -44 15 C-49.52602015 16.79552074 -52.07856022 19.90039209 -54.9375 24.8125 C-57.41476691 28.77612705 -57.41476691 28.77612705 -59.87890625 29.71875 C-67.01014078 30.03394269 -77.17453754 27.82411441 -82.91015625 23.58984375 C-84.5550337 21.19032718 -84.17251073 19.01282818 -83.6953125 16.24609375 C-80.75840081 6.75887901 -72.69144641 -0.22174961 -64.1875 -4.75 C-62.47233741 -5.53149514 -60.74284464 -6.28235809 -59 -7 C-58.23816406 -7.32097656 -57.47632813 -7.64195312 -56.69140625 -7.97265625 C-38.76005866 -14.14103982 -15.42270664 -10.6943969 0 0 Z " fill="#3C2B20" transform="translate(373,703)"/>
<path d="M0 0 C1.01652649 -0.00708481 2.03305298 -0.01416962 3.0803833 -0.02146912 C4.19991898 -0.0189917 5.31945465 -0.01651428 6.47291565 -0.01396179 C8.23639847 -0.02162819 8.23639847 -0.02162819 10.0355072 -0.02944946 C13.26487386 -0.04099113 16.49408185 -0.04341529 19.72346377 -0.04088616 C22.4173868 -0.03981812 25.11128603 -0.04469556 27.80520397 -0.04949158 C34.15979126 -0.06059579 40.51431944 -0.06101916 46.86891174 -0.05497742 C53.42867141 -0.04893658 59.98821664 -0.06124916 66.54793972 -0.08254749 C72.17601976 -0.1001503 77.80403146 -0.10616692 83.43213803 -0.10290974 C86.79524598 -0.10109451 90.15820101 -0.10375662 93.5212841 -0.11762428 C97.27095611 -0.12990951 101.02012714 -0.12324423 104.76979065 -0.11161804 C105.88730209 -0.11926178 107.00481354 -0.12690552 108.15618896 -0.13478088 C109.17553528 -0.12776657 110.19488159 -0.12075226 111.24511719 -0.11352539 C112.13204978 -0.11369313 113.01898237 -0.11386087 113.93279171 -0.1140337 C116.65929347 0.3393995 117.54517182 1.07213172 119.18605042 3.26069641 C119.57423401 5.57319641 119.57423401 5.57319641 119.58448792 8.26069641 C119.5883551 9.23007141 119.59222229 10.19944641 119.59620667 11.19819641 C119.5846051 12.20882141 119.57300354 13.21944641 119.56105042 14.26069641 C119.57265198 15.27132141 119.58425354 16.28194641 119.59620667 17.32319641 C119.59233948 18.29257141 119.58847229 19.26194641 119.58448792 20.26069641 C119.58110413 21.14757141 119.57772034 22.03444641 119.57423401 22.94819641 C119.09779567 25.78645047 118.43021599 26.50614221 116.18605042 28.26069641 C114.07894897 28.62145996 114.07894897 28.62145996 111.62281799 28.60127258 C110.70209 28.60104599 109.781362 28.6008194 108.83273315 28.60058594 C107.84202316 28.58510208 106.85131317 28.56961823 105.83058167 28.55366516 C104.81380844 28.54942032 103.79703522 28.54517548 102.74945068 28.540802 C99.4988823 28.52399638 96.24893172 28.48634023 92.99855042 28.44819641 C90.7960854 28.43315203 88.59361069 28.4194632 86.39112854 28.40718079 C80.9892247 28.37408677 75.58768169 28.32386864 70.18605042 28.26069641 C70.18881579 28.93914549 70.19158117 29.61759457 70.19443035 30.31660271 C70.26061765 46.80740207 70.31029555 63.29815949 70.34148693 79.78906059 C70.35697089 87.76386656 70.37808946 95.73858398 70.41236877 103.71333313 C70.44222451 110.66227912 70.46161429 117.611161 70.4683159 124.56016934 C70.4722347 128.24131841 70.48147576 131.92228407 70.50324059 135.60337448 C70.5273128 139.70781927 70.52802289 143.81194304 70.52662659 147.91645813 C70.53741241 149.14356506 70.54819824 150.370672 70.55931091 151.63496399 C70.55518692 152.74838165 70.55106293 153.86179932 70.54681396 155.00895691 C70.54957934 155.98052671 70.55234472 156.95209652 70.5551939 157.95310783 C70.43337655 158.71461206 70.3115592 159.47611629 70.18605042 160.26069641 C65.62544608 163.3010993 61.11257027 162.58960014 55.74855042 162.57319641 C54.69860901 162.58930969 53.6486676 162.60542297 52.56690979 162.62202454 C51.55564026 162.62266907 50.54437073 162.6233136 49.50245667 162.62397766 C48.11715759 162.6284491 48.11715759 162.6284491 46.70387268 162.63301086 C43.63017996 162.17849895 42.41355802 161.41375253 40.18605042 159.26069641 C39.6938591 156.84567738 39.6938591 156.84567738 39.70503235 153.92666626 C39.69953369 152.82028809 39.69403503 151.71390991 39.68836975 150.57400513 C39.70275085 149.35984421 39.71713196 148.14568329 39.73194885 146.89472961 C39.73136475 145.61657379 39.73078064 144.33841797 39.73017883 143.02153015 C39.72902986 139.51539694 39.75256791 136.00980968 39.78047466 132.50380349 C39.80545829 128.84029159 39.8078279 125.17676754 39.81257629 121.51318359 C39.82501508 114.57517463 39.85784867 107.63741739 39.89797425 100.69951934 C39.94266407 92.80120756 39.96467194 84.90288385 39.98475599 77.00447714 C40.0265807 60.7564028 40.09695002 44.50858172 40.18605042 28.26069641 C39.34706711 28.26735825 39.34706711 28.26735825 38.49113464 28.27415466 C32.68406217 28.3183079 26.87703717 28.34852935 21.06983948 28.37055969 C18.90087447 28.3806343 16.7319231 28.39429439 14.56300354 28.41157532 C11.45033916 28.43575964 8.3378539 28.44716473 5.22511292 28.45600891 C4.25111542 28.46633148 3.27711792 28.47665405 2.27360535 28.48728943 C1.37282257 28.48744049 0.47203979 28.48759155 -0.45603943 28.48774719 C-1.64850784 28.49440903 -1.64850784 28.49440903 -2.86506653 28.50120544 C-4.81394958 28.26069641 -4.81394958 28.26069641 -6.81394958 26.26069641 C-7.07273865 23.86225891 -7.07273865 23.86225891 -7.07957458 20.88569641 C-7.08215271 19.81835266 -7.08473083 18.75100891 -7.08738708 17.65132141 C-7.07578552 15.97296204 -7.07578552 15.97296204 -7.06394958 14.26069641 C-7.07168396 13.14179016 -7.07941833 12.02288391 -7.08738708 10.87007141 C-7.08480896 9.80272766 -7.08223083 8.73538391 -7.07957458 7.63569641 C-7.07731873 6.65343079 -7.07506287 5.67116516 -7.07273865 4.65913391 C-6.57056718 0.0050467 -4.05292761 0.00938478 0 0 Z " fill="#3C2B1F" transform="translate(170.81394958496094,652.7393035888672)"/>
<path d="M0 0 C9.60985382 5.41612114 13.57073378 15.64235627 16.6875 25.75 C20.22145973 41.36847719 19.689635 61.55321732 11.125 75.5 C10.08761539 76.84911102 9.00465462 78.16464973 7.875 79.4375 C7.34648438 80.035625 6.81796875 80.63375 6.2734375 81.25 C-6.89856726 94.2479254 -24.8932024 97.66040546 -42.59008789 97.76757812 C-55.6870778 97.63300849 -66.49527075 95.45290868 -76.30078125 86.41796875 C-83.8974719 78.17059796 -85.68673358 67.99800092 -85.5078125 57.109375 C-84.39122192 46.39922048 -80.91877988 33.23127988 -73.125 25.4375 C-70.5625 25.25 -70.5625 25.25 -68.125 25.4375 C-67.125 26.4375 -67.125 26.4375 -66.875 29.4375 C-66.89989805 32.49996033 -67.5371079 34.83434903 -68.625 37.6875 C-70.97218665 44.23726846 -70.99340336 50.54282215 -69 57.1875 C-64.71323051 64.61790045 -60.39478825 68.76240328 -52.125 71.4375 C-34.87588068 75.44587732 -16.16150812 73.35797305 -0.83203125 64.68359375 C2.01953236 62.60201757 2.83186706 60.65747799 3.5 57.25 C3.685625 55.8578125 3.685625 55.8578125 3.875 54.4375 C2.72 54.9325 1.565 55.4275 0.375 55.9375 C-8.1244696 58.73037469 -18.60283262 59.12237558 -26.8125 55.3125 C-31.78033501 52.36859777 -35.26341432 49.02225704 -37.125 43.4375 C-38.56436597 32.00482174 -34.63763005 19.6800224 -27.86328125 10.4375 C-20.39726336 1.84738504 -11.63840347 -5.18498663 0 0 Z " fill="#3C2A1F" transform="translate(699.125,329.5625)"/>
<path d="M0 0 C1.23937317 -0.00860046 2.47874634 -0.01720093 3.75567627 -0.02606201 C5.13677937 -0.03049739 6.51788291 -0.03479573 7.89898682 -0.03897095 C9.34765826 -0.04687112 10.79632773 -0.05514001 12.24499512 -0.06375122 C17.01017372 -0.08998304 21.77536116 -0.10528082 26.54058838 -0.11953735 C28.18048356 -0.12489671 29.82037868 -0.13027422 31.46027374 -0.13566971 C38.28184624 -0.15730087 45.10341637 -0.1760375 51.9250145 -0.1872921 C61.7032781 -0.20353034 71.48114427 -0.23670203 81.25925803 -0.29369295 C88.13322067 -0.33239182 95.007077 -0.35192476 101.88114572 -0.35721266 C105.98726669 -0.36086648 110.09296389 -0.37289008 114.19896698 -0.4053154 C118.06342082 -0.43539521 121.92719448 -0.44170863 125.79174042 -0.42993164 C127.20829809 -0.42971089 128.62488731 -0.43801769 130.04133606 -0.45558548 C142.07468238 -0.59667889 142.07468238 -0.59667889 146.00842285 2.56536865 C149.25688263 6.43538757 149.57649811 8.88859322 149.53668213 13.82577515 C148.9326892 17.78159696 147.07663533 19.46048438 144.18121338 22.15390015 C140.9814976 23.22047207 138.6819611 23.28758702 135.31809998 23.30107117 C134.09418045 23.30822647 132.87026093 23.31538177 131.60925293 23.32275391 C130.25067164 23.32559411 128.89209008 23.32830585 127.5335083 23.3309021 C126.10439387 23.33716778 124.67528107 23.34381467 123.24617004 23.35081482 C118.55135225 23.3718434 113.85653418 23.38221535 109.16168213 23.3921814 C107.54500117 23.39622925 105.92832039 23.40034619 104.31163979 23.40453148 C96.71693555 23.42357968 89.12224102 23.43781208 81.5275175 23.44614345 C72.76206515 23.45591807 63.99686517 23.48224485 55.23150176 23.52264434 C48.45518059 23.55280427 41.67893178 23.56761216 34.9025448 23.57092446 C30.85575017 23.5732749 26.80922528 23.58223446 22.76250267 23.60738564 C18.95473363 23.63066974 15.14741186 23.6348985 11.33959007 23.62462425 C9.94400545 23.62412887 8.54839879 23.63045009 7.15288162 23.6441803 C-6.01466127 23.76645925 -6.01466127 23.76645925 -10.81878662 19.15390015 C-13.49999738 15.132084 -13.63222997 11.88153623 -12.81878662 7.15390015 C-9.61936188 1.40920814 -6.30296384 0.03246727 0 0 Z " fill="#3A281D" transform="translate(302.81878662109375,243.84609985351563)"/>
<path d="M0 0 C1.22673935 -0.00708481 2.4534787 -0.01416962 3.71739197 -0.02146912 C5.0739292 -0.01917537 6.43046608 -0.01666568 7.78700256 -0.01396179 C9.21788804 -0.01830975 10.64877119 -0.02349318 12.07965088 -0.02944946 C15.96394961 -0.04284164 19.84815105 -0.04341791 23.73246837 -0.04088616 C26.97555912 -0.03981661 30.21863018 -0.0446994 33.46171671 -0.04949158 C41.11280354 -0.06058749 48.76384127 -0.06102369 56.41493225 -0.05497742 C64.30729507 -0.04893637 72.19947967 -0.0612517 80.09181207 -0.08254749 C86.8689964 -0.1001617 93.64612399 -0.10616514 100.42333037 -0.10290974 C104.47057253 -0.10109647 108.51768755 -0.10373738 112.56490898 -0.11762428 C116.37100916 -0.13019516 120.17683144 -0.12826572 123.98292732 -0.11521339 C125.37891865 -0.11284644 126.77492948 -0.1155866 128.17089844 -0.12383652 C130.07818081 -0.1342945 131.98554226 -0.12440592 133.89282227 -0.11352539 C134.95967223 -0.11369313 136.0265222 -0.11386087 137.12570095 -0.1140337 C141.29196038 0.42726779 143.9305331 2.11475749 146.78334045 5.14350891 C148.21979501 7.62299416 148.53702219 9.2793578 148.63490295 12.13569641 C148.68904358 12.95811829 148.7431842 13.78054016 148.79896545 14.62788391 C147.75114354 18.12408179 146.20751091 19.6730994 143.41128731 21.96780014 C138.31840325 24.70978969 132.45827601 24.07206819 126.81629944 24.00532532 C125.3767339 24.01018654 123.93717513 24.01763042 122.49763489 24.02745056 C118.60277924 24.04620224 114.70893462 24.02747714 110.8141582 24.0007863 C106.73170569 23.97808952 102.64930049 23.98637741 98.56680298 23.99028015 C91.71311499 23.9920438 84.85982351 23.96993144 78.00624084 23.93305969 C70.08931596 23.89071037 62.17297134 23.88370936 54.25595611 23.89618361 C46.62967695 23.90758322 39.00360154 23.89626636 31.37735176 23.87383652 C28.13623844 23.86456241 24.89525008 23.86278899 21.65412712 23.86700821 C17.83634643 23.87078297 14.01915411 23.85449928 10.20150757 23.82288742 C8.80273435 23.8144223 7.4039013 23.81268686 6.0051136 23.81826782 C-7.18948403 23.86291597 -7.18948403 23.86291597 -11.99009705 19.26069641 C-14.67477743 15.23367584 -14.67197442 11.99226011 -13.99009705 7.26069641 C-10.45488083 1.32658348 -6.68015399 0.01285873 0 0 Z " fill="#3A291E" transform="translate(303.99009704589844,306.7393035888672)"/>
<path d="M0 0 C1.10923828 0.00064453 2.21847656 0.00128906 3.36132812 0.00195312 C5.09866211 0.02612305 5.09866211 0.02612305 6.87109375 0.05078125 C8.03318359 0.04755859 9.19527344 0.04433594 10.39257812 0.04101562 C19.04167429 0.09636179 19.04167429 0.09636179 21.30859375 2.36328125 C21.56306934 4.3997879 21.56306934 4.3997879 21.56929016 6.95617676 C21.57637497 7.92366348 21.58345978 8.89115021 21.59075928 9.88795471 C21.58828186 10.952957 21.58580444 12.01795929 21.58325195 13.11523438 C21.59091835 14.7933445 21.59091835 14.7933445 21.59873962 16.50535583 C21.61268645 20.2184681 21.61167516 23.93139584 21.609375 27.64453125 C21.61325884 30.21521067 21.61759285 32.78588945 21.62236023 35.35656738 C21.62983321 40.75026803 21.62966066 46.14389659 21.62426758 51.53759766 C21.61822387 57.77814451 21.63054689 64.01846613 21.65183765 70.25897455 C21.67154827 76.25616774 21.67463102 82.25324255 21.67110252 88.25047302 C21.67161763 90.80546091 21.6768906 93.36045226 21.68691444 95.91542053 C21.69918612 99.48090208 21.69254303 103.04585567 21.6809082 106.61132812 C21.69237381 108.20883156 21.69237381 108.20883156 21.70407104 109.83860779 C21.69705673 110.80609451 21.69004242 111.77358124 21.68281555 112.77038574 C21.68298329 113.61399406 21.68315104 114.45760239 21.68332386 115.3267746 C21.49783246 116.33484539 21.49783246 116.33484539 21.30859375 117.36328125 C17.89561727 119.63859891 16.6272847 119.62002804 12.6171875 119.62890625 C10.95333008 119.63277344 10.95333008 119.63277344 9.25585938 119.63671875 C8.09763672 119.62898437 6.93941406 119.62125 5.74609375 119.61328125 C4.58400391 119.62101563 3.42191406 119.62875 2.22460938 119.63671875 C1.11666016 119.63414062 0.00871094 119.6315625 -1.1328125 119.62890625 C-2.15060791 119.62665039 -3.16840332 119.62439453 -4.21704102 119.62207031 C-6.69140625 119.36328125 -6.69140625 119.36328125 -8.69140625 117.36328125 C-8.94588184 115.34518528 -8.94588184 115.34518528 -8.95210266 112.81507874 C-8.95918747 111.85745132 -8.96627228 110.89982391 -8.97357178 109.91317749 C-8.97109436 108.85909698 -8.96861694 107.80501648 -8.96606445 106.71899414 C-8.97117538 105.61161392 -8.97628632 104.5042337 -8.98155212 103.36329651 C-8.99549983 99.68745583 -8.99448745 96.01180156 -8.9921875 92.3359375 C-8.99607157 89.79007395 -9.00040564 87.24421105 -9.00517273 84.698349 C-9.0126461 79.3559228 -9.01247313 74.01356555 -9.00708008 68.67114258 C-9.00103943 62.49309876 -9.01335146 56.31528263 -9.03465015 50.13727766 C-9.05437492 44.19776802 -9.0574417 38.2583291 -9.05391502 32.31878471 C-9.05442977 29.78974307 -9.05969596 27.2606979 -9.06972694 24.7316761 C-9.08201495 21.19992481 -9.07534529 17.66870519 -9.0637207 14.13696289 C-9.07136444 13.08490662 -9.07900818 12.03285034 -9.08688354 10.94891357 C-9.07986923 9.98846634 -9.07285492 9.0280191 -9.06562805 8.03846741 C-9.06579579 7.20315522 -9.06596354 6.36784304 -9.06613636 5.50721836 C-8.15481717 0.29330311 -4.67937206 -0.01368995 0 0 Z " fill="#3A291E" transform="translate(700.69140625,695.63671875)"/>
<path d="M0 0 C6.09944845 4.55478293 9.61946365 12.37838059 10.9296875 19.78515625 C11.64314711 32.73719218 11.61768709 46.28715675 2.9296875 56.78515625 C-2.95192992 63.29694696 -8.93298934 66.02038078 -17.578125 67.09765625 C-25.49257835 67.49461943 -32.47742329 64.9970168 -38.8203125 60.28515625 C-44.48643397 55.04869328 -48.60230658 46.37863384 -49.24731445 38.66967773 C-49.60617425 25.41474092 -49.71423164 14.96198808 -40.8203125 4.34765625 C-29.46938644 -7.4333708 -13.84907884 -8.12653494 0 0 Z " fill="#FDF6E8" transform="translate(822.0703125,724.21484375)"/>
<path d="M0 0 C8.03645101 4.50671567 12.28795199 11.8666972 14.8125 20.5 C15.33812749 24.31205876 15.38689284 28.03158352 15.3125 31.875 C15.29219727 33.3911792 15.29219727 33.3911792 15.27148438 34.93798828 C14.96403937 46.0328205 12.93411884 54.50629234 5.03515625 62.65625 C-1.72483915 68.26383845 -9.66342064 69.88028895 -18.2421875 69.77734375 C-25.97054939 69.04960675 -33.17958798 65.46605845 -38.1875 59.5 C-45.4614876 48.14406723 -46.89983027 35.45358153 -44.0625 22.375 C-41.39152132 12.88370831 -36.87642568 5.45553372 -28.1875 0.5 C-20.58503438 -3.41601249 -7.87803626 -3.08567798 0 0 Z " fill="#FDF6E9" transform="translate(619.1875,721.5)"/>
<path d="M0 0 C0.82989944 -0.00571014 1.65979889 -0.01142029 2.5148468 -0.01730347 C3.42192886 -0.01842133 4.32901093 -0.01953918 5.26358032 -0.02069092 C6.70059547 -0.02813828 6.70059547 -0.02813828 8.16664124 -0.03573608 C11.34040033 -0.05035841 14.51410946 -0.05715953 17.68789673 -0.06268311 C19.89123537 -0.06843411 22.09457399 -0.07419185 24.2979126 -0.07995605 C28.91977166 -0.09046598 33.54161333 -0.09630883 38.16348267 -0.09979248 C44.08750478 -0.10527985 50.01129735 -0.12931325 55.93524742 -0.15776443 C60.48712844 -0.17638135 65.03895403 -0.1815959 69.5908699 -0.18312836 C71.77496217 -0.1861571 73.95905341 -0.19419306 76.14310837 -0.20731354 C79.19776675 -0.22435541 82.25186253 -0.22249829 85.30654907 -0.21600342 C86.20958267 -0.2252182 87.11261627 -0.23443298 88.04301453 -0.243927 C92.8175932 -0.21210281 96.06158024 -0.00363982 99.91445923 3.14044189 C102.78150595 7.24987553 103.39469092 10.41759807 102.56289673 15.24200439 C101.47853126 18.41671293 99.49880132 20.10988739 96.91445923 22.14044189 C94.21580965 23.03999175 92.64419533 23.27098662 89.87361145 23.28761292 C89.05357132 23.29476822 88.23353119 23.30192352 87.38864136 23.30929565 C86.49248108 23.31198456 85.5963208 23.31467346 84.67300415 23.31744385 C83.25302879 23.32730064 83.25302879 23.32730064 81.80436707 23.33735657 C78.66788658 23.35708665 75.53145395 23.36875096 72.39492798 23.37872314 C71.32397699 23.38279867 70.25302601 23.3868742 69.14962196 23.39107323 C63.48228778 23.41193176 57.8149778 23.42623498 52.14761353 23.43560791 C46.29312143 23.44667769 40.43900884 23.48108505 34.58465099 23.52077961 C30.08334138 23.54691747 25.58212263 23.5552972 21.08074379 23.55888939 C18.9225845 23.56376189 16.76442944 23.57539466 14.60634422 23.59392738 C11.58528876 23.61826028 8.56522124 23.6173644 5.5440979 23.6104126 C4.20896652 23.62962769 4.20896652 23.62962769 2.84686279 23.64923096 C-2.7635381 23.60220909 -5.75485599 22.76665919 -10.08554077 19.14044189 C-12.41551309 16.17502258 -12.5597949 12.90406355 -12.47616577 9.17559814 C-11.76732205 5.48252237 -9.77415267 3.70400207 -7.08554077 1.14044189 C-4.37100071 0.23559521 -2.78914894 0.0115105 0 0 Z " fill="#3B291E" transform="translate(302.0855407714844,369.85955810546875)"/>
<path d="M0 0 C1.55336242 0.02009357 3.1067499 0.0383393 4.66015625 0.0546875 C8.44072979 0.09846321 12.22008511 0.16733026 16 0.25 C16.06373443 9.7773869 14.98168732 17.42285274 8.06640625 24.5546875 C1.53808082 29.91062935 -5.67798743 30.9248061 -13.94140625 30.6328125 C-19.88378094 29.88906701 -23.45238102 27.9136904 -27.5 23.5625 C-29.71456927 18.67199286 -29.99045057 14.40706118 -28.375 9.2578125 C-26.45130212 5.25583388 -23.80309503 2.96801173 -19.75976562 1.04614258 C-13.4234531 -0.78176923 -6.53944994 -0.14732873 0 0 Z " fill="#FDF6EA" transform="translate(343,763.75)"/>
<path d="M0 0 C3.36733876 1.16426616 4.99889799 2.88869927 7.43359375 5.46875 C8.22378906 6.29503906 9.01398437 7.12132812 9.828125 7.97265625 C10.41980469 8.61074219 11.01148438 9.24882812 11.62109375 9.90625 C12.29205078 9.32617188 12.29205078 9.32617188 12.9765625 8.734375 C14.22980238 7.65482508 15.48786287 6.58085302 16.75 5.51171875 C18.27961137 4.19925471 19.76914255 2.84020469 21.24609375 1.46875 C23.62109375 -0.09375 23.62109375 -0.09375 25.90625 -0.015625 C29.53699611 1.21726145 31.79793603 3.42290326 34.43359375 6.09375 C34.93568359 6.56361328 35.43777344 7.03347656 35.95507812 7.51757812 C38.3346164 9.89064147 39.55509219 11.59944274 40.265625 14.90234375 C39.40844313 18.89733075 37.36045509 21.05045992 34.49609375 23.78125 C34.02171875 24.27882813 33.54734375 24.77640625 33.05859375 25.2890625 C30.63292493 27.67539615 28.91452473 28.84861177 25.55859375 29.5078125 C21.74911479 28.72767984 20.35333641 27.25051472 17.74609375 24.40625 C16.96492187 23.5709375 16.18375 22.735625 15.37890625 21.875 C14.79882812 21.2253125 14.21875 20.575625 13.62109375 19.90625 C9.59869318 21.64519173 7.41485639 24.17415594 4.59765625 27.4453125 C2.62109375 28.90625 2.62109375 28.90625 -0.2421875 29.44140625 C-4.38642044 28.73435779 -6.4243421 26.67559907 -9.19140625 23.71875 C-9.68060547 23.23599609 -10.16980469 22.75324219 -10.67382812 22.25585938 C-13.51239476 19.33091866 -15.40617177 17.0710575 -15.37890625 12.90625 C-13.54424211 9.8113533 -10.93579886 7.42263738 -8.37890625 4.90625 C-7.57259766 4.08447266 -7.57259766 4.08447266 -6.75 3.24609375 C-4.51215049 1.14847502 -3.14436168 -0.12391573 0 0 Z " fill="#3A291E" transform="translate(676.37890625,291.09375)"/>
<path d="M0 0 C4.67807305 2.66816924 8.03428795 5.91183731 9.64453125 11.125 C10.41365092 16.17234786 10.25619726 19.90166798 7.95703125 24.5 C4.49129929 28.43407411 1.19675979 31.90996417 -4.18359375 32.36328125 C-13.39507645 32.56307368 -13.39507645 32.56307368 -17.91796875 30.5 C-22.76877609 25.77357233 -24.6403235 22.5791793 -25.04296875 15.75 C-24.87289098 9.79727795 -23.4508157 6.77783552 -19.27734375 2.61328125 C-13.61558353 -1.77113063 -6.75942821 -2.51096504 0 0 Z " fill="#3A291E" transform="translate(715.35546875,649.875)"/>
<path d="M0 0 C0.66 0 1.32 0 2 0 C2.00059709 0.61981676 2.00119418 1.23963351 2.00180936 1.8782326 C2.03769404 38.60394123 2.09431871 75.32956336 2.17792095 112.05519549 C2.18793855 116.46371723 2.19778266 120.87223935 2.20751953 125.28076172 C2.2094609 126.1584286 2.21140228 127.03609548 2.21340248 127.94035833 C2.24443363 142.15619283 2.26140624 156.37201118 2.27319422 170.58787318 C2.28560001 185.17188831 2.31308845 199.75581862 2.35461307 214.33978021 C2.37976489 223.34074208 2.39311605 232.3415633 2.39142957 241.34256081 C2.39139984 247.51274375 2.40600476 253.68278329 2.43216428 259.85291035 C2.44682931 263.41416191 2.45499707 266.97511937 2.44580269 270.53639603 C2.43600452 274.39682002 2.45700063 278.25672624 2.48101807 282.11709595 C2.47325765 283.2435577 2.46549723 284.37001945 2.45750165 285.5306164 C2.52528385 291.66524708 2.86778033 295.34577682 7 300 C9.10575643 301.83300909 9.10575643 301.83300909 11 303 C8.6875 303.25 8.6875 303.25 6 303 C5.01 301.68 4.02 300.36 3 299 C2.67 303.62 2.34 308.24 2 313 C72.29 313 142.58 313 215 313 C215 313.33 215 313.66 215 314 C144.05 314 73.1 314 0 314 C0 210.38 0 106.76 0 0 Z " fill="#EEC47F" transform="translate(230,233)"/>
<path d="M0 0 C0.99 0 1.98 0 3 0 C3 81.18 3 162.36 3 246 C2.01 245.67 1.02 245.34 0 245 C0 164.15 0 83.3 0 0 Z " fill="#D9AE70" transform="translate(788,233)"/>
<path d="M0 0 C3.22548153 1.40678806 5.25616875 3.06278555 7.64453125 5.6328125 C8.66063477 6.71949219 8.66063477 6.71949219 9.69726562 7.828125 C10.39529297 8.58609375 11.09332031 9.3440625 11.8125 10.125 C12.49892578 10.85976563 13.18535156 11.59453125 13.89257812 12.3515625 C17.82479258 16.57766999 21.66992768 20.87046779 25.45678711 25.22705078 C27.40506699 27.46536885 29.38610833 29.67274064 31.375 31.875 C32.13425781 32.71675781 32.89351562 33.55851563 33.67578125 34.42578125 C34.44277344 35.27527344 35.20976563 36.12476563 36 37 C38.26550261 39.51250801 40.52972001 42.02573794 42.78125 44.55078125 C44.27423136 46.19884342 45.79601204 47.82121909 47.34375 49.41796875 C48.0759375 50.18753906 48.808125 50.95710937 49.5625 51.75 C50.22378906 52.42546875 50.88507812 53.1009375 51.56640625 53.796875 C53.42570363 56.65421484 53.26249274 58.65918327 53 62 C46.90741575 61.70298652 43.98860554 59.80707316 40 55.4375 C39.47656006 54.88884277 38.95312012 54.34018555 38.41381836 53.77490234 C35.17251917 50.35311201 32.02821651 46.84640661 28.97265625 43.2578125 C26.21879489 40.10586821 23.35684178 37.05849649 20.5 34 C16.55913691 29.77654063 12.67072135 25.52781005 8.8984375 21.15234375 C4.3651325 16.01273252 -0.33756708 11.02225943 -5 6 C-3.35 4.02 -1.7 2.04 0 0 Z " fill="#C69C66" transform="translate(780,499)"/>
<path d="M0 0 C1.32 0.33 2.64 0.66 4 1 C3.34 1 2.68 1 2 1 C2.10456384 40.20335359 2.21433096 79.40668942 2.33111694 118.61000859 C2.3448872 123.23398348 2.35861419 127.8579585 2.37231445 132.48193359 C2.37504276 133.40251832 2.37777106 134.32310305 2.38058204 135.27158429 C2.42470667 150.19496924 2.46532319 165.1183618 2.50465261 180.04176007 C2.54505926 195.34440933 2.58921408 210.64704443 2.63687855 225.94967282 C2.66619205 235.39896373 2.69255077 244.84825353 2.71517897 254.29756285 C2.73095677 260.76948507 2.75036167 267.24138995 2.77266841 273.71329294 C2.7854466 277.45218182 2.79657814 281.1910573 2.80341911 284.92996216 C2.81086279 288.97554452 2.82591994 293.02106178 2.84178162 297.06661987 C2.84324878 298.85549946 2.84324878 298.85549946 2.84474558 300.68051803 C2.85022002 301.75738597 2.85569446 302.8342539 2.8613348 303.9437542 C2.86532186 305.34606138 2.86532186 305.34606138 2.86938947 306.77669799 C2.85585488 309.04003487 2.85585488 309.04003487 4 311 C2.68 311.33 1.36 311.66 0 312 C0 209.04 0 106.08 0 0 Z " fill="#FEFDFA" transform="translate(255,198)"/>
<path d="M0 0 C0.33 0 0.66 0 1 0 C1.06975957 10.65868126 0.86313961 21.28581109 0.5 31.9375 C0.45159923 33.41079996 0.4034212 34.88410726 0.35546875 36.35742188 C0.23953183 39.9050357 0.12063345 43.4525424 0 47 C-2.86950038 45.68950105 -5.0192289 44.26142433 -7.3125 42.1015625 C-7.91320312 41.53953125 -8.51390625 40.9775 -9.1328125 40.3984375 C-10.05707031 39.52058594 -10.05707031 39.52058594 -11 38.625 C-11.61617187 38.0475 -12.23234375 37.47 -12.8671875 36.875 C-15.96238563 33.96577944 -19.01841461 31.02630917 -22 28 C-21.39414062 27.44054687 -20.78828125 26.88109375 -20.1640625 26.3046875 C-12.29452059 18.77414124 -4.54314569 10.02454972 0 0 Z " fill="#FBF5EA" transform="translate(765,414)"/>
<path d="M0 0 C80.52 0 161.04 0 244 0 C241.63581179 2.36418821 241.20005758 2.25130109 237.99570465 2.25891972 C237.15345762 2.26576851 236.31121058 2.2726173 235.44344091 2.27967364 C234.5129123 2.27705678 233.58238368 2.27443993 232.62365723 2.27174377 C231.14700647 2.27937403 231.14700647 2.27937403 229.64052439 2.28715843 C226.32085748 2.30189621 223.00133804 2.30235437 219.68164062 2.30297852 C217.31023365 2.31063454 214.9388294 2.31917991 212.56742859 2.32855225 C206.7824409 2.34926228 200.99748469 2.36090326 195.2124666 2.36884231 C188.48070376 2.37867807 181.74899685 2.4005735 175.01726776 2.42347669 C163.00908564 2.4640998 151.00089659 2.49655116 138.99267578 2.52319336 C137.91405198 2.52558931 137.91405198 2.52558931 136.81363779 2.52803367 C136.0936446 2.52963257 135.3736514 2.53123147 134.63184023 2.53287882 C124.42366238 2.55556694 114.21549168 2.58019815 104.00732422 2.60717773 C102.9300097 2.61002195 102.9300097 2.61002195 101.83093125 2.61292363 C89.86853648 2.64466905 77.90615558 2.68041743 65.94377851 2.71821922 C57.90091134 2.74335148 49.85805501 2.76260614 41.81516266 2.77760136 C36.82089071 2.78777598 31.82663555 2.80192186 26.83237648 2.81707764 C24.50791124 2.82325482 22.18344069 2.82770192 19.85896873 2.83033562 C16.69806198 2.83412293 13.53723013 2.84391563 10.37634277 2.85523987 C9.44581416 2.85485374 8.51528554 2.8544676 7.55655909 2.85406977 C6.29318854 2.86043134 6.29318854 2.86043134 5.00429535 2.86692142 C3.90890953 2.86928227 3.90890953 2.86928227 2.79139471 2.87169081 C0.89600377 2.89276023 0.89600377 2.89276023 -1 4 C-0.67 2.68 -0.34 1.36 0 0 Z " fill="#FCFCF5" transform="translate(557,570)"/>
<path d="M0 0 C0.33 0 0.66 0 1 0 C1.00142502 1.07439835 1.00285004 2.14879669 1.00431824 3.25575256 C1.02100563 13.39320232 1.06383258 23.53025155 1.13209057 33.66748905 C1.16634524 38.87888885 1.19146821 44.08999597 1.19555664 49.30151367 C1.1998428 54.33330607 1.22833226 59.3644384 1.27343178 64.3960247 C1.28639656 66.31325876 1.29071808 68.23057185 1.28615379 70.14784431 C1.28124051 72.83894781 1.30737135 75.5281275 1.34057617 78.21899414 C1.33195053 79.00734146 1.32332489 79.79568878 1.31443787 80.60792542 C1.43241057 86.33123363 3.13472417 89.7907886 7 94 C9.14176007 95.88303962 9.14176007 95.88303962 11 97 C8.6875 97.25 8.6875 97.25 6 97 C5.01 95.68 4.02 94.36 3 93 C2.67 97.62 2.34 102.24 2 107 C72.29 107 142.58 107 215 107 C215 107.33 215 107.66 215 108 C144.05 108 73.1 108 0 108 C0 72.36 0 36.72 0 0 Z " fill="#E7B978" transform="translate(230,439)"/>
<path d="M0 0 C4.16648399 2.75145169 6.74530047 5.10667184 8 10 C8 11.32 8 12.64 8 14 C3.81648441 16.0917578 -1.44306901 15.42531356 -6 15 C-9.1875 13.4375 -9.1875 13.4375 -11 11 C-12.125 7.5 -12.125 7.5 -12 4 C-8.53272252 -0.22574443 -5.29006592 -0.83527357 0 0 Z " fill="#FBF6EC" transform="translate(689,350)"/>
<path d="M0 0 C0.33 0 0.66 0 1 0 C1.33 32.01 1.66 64.02 2 97 C0.68 95.35 -0.64 93.7 -2 92 C-1.505 91.01 -1.505 91.01 -1 90 C-0.87727389 87.16315554 -0.81425439 84.34928006 -0.79467773 81.51123047 C-0.78477814 80.63311707 -0.77487854 79.75500366 -0.76467896 78.85028076 C-0.73301726 75.93927738 -0.70828809 73.02825765 -0.68359375 70.1171875 C-0.66302825 68.10221933 -0.64203189 66.08725551 -0.62062073 64.07229614 C-0.56535829 58.76226319 -0.51596743 53.45219103 -0.46777344 48.14208984 C-0.41758885 42.72620138 -0.36188692 37.31037003 -0.30664062 31.89453125 C-0.19900803 21.26306959 -0.0975744 10.6315584 0 0 Z " fill="#FDFDFC" transform="translate(764,199)"/>
<path d="M0 0 C2.9375 0.375 2.9375 0.375 6 1 C7.25248502 3.50497004 7.11374406 5.20853274 7.09765625 8.0078125 C7.09443359 8.99394531 7.09121094 9.98007812 7.08789062 10.99609375 C7.07951172 12.02863281 7.07113281 13.06117188 7.0625 14.125 C7.05798828 15.16527344 7.05347656 16.20554687 7.04882812 17.27734375 C7.03701952 19.85161962 7.02055075 22.42578146 7 25 C6.01 25 5.02 25 4 25 C3.67 17.08 3.34 9.16 3 1 C2.01 0.67 1.02 0.34 0 0 Z " fill="#43352B" transform="translate(283,653)"/>
<path d="M0 0 C2.40179685 2.40179685 2.25598087 2.96950007 2.265625 6.24609375 C2.26820313 7.08333984 2.27078125 7.92058594 2.2734375 8.78320312 C2.26570312 9.65912109 2.25796875 10.53503906 2.25 11.4375 C2.25773438 12.30955078 2.26546875 13.18160156 2.2734375 14.08007812 C2.27085937 14.91861328 2.26828125 15.75714844 2.265625 16.62109375 C2.26336914 17.3886499 2.26111328 18.15620605 2.25878906 18.94702148 C2 21 2 21 0 24 C-0.90683762 21.27948714 -1.12842547 19.67266994 -1.1328125 16.875 C-1.13410156 16.08609375 -1.13539063 15.2971875 -1.13671875 14.484375 C-1.13285156 13.66453125 -1.12898437 12.8446875 -1.125 12 C-1.12886719 11.18015625 -1.13273438 10.3603125 -1.13671875 9.515625 C-1.13542969 8.72671875 -1.13414062 7.9378125 -1.1328125 7.125 C-1.13168457 6.40570312 -1.13055664 5.68640625 -1.12939453 4.9453125 C-1 3 -1 3 0 0 Z " fill="#403228" transform="translate(743,744)"/>
<path d="M0 0 C0.33 0 0.66 0 1 0 C1 4.95 1 9.9 1 15 C0.67 15 0.34 15 0 15 C-0.33 21.6 -0.66 28.2 -1 35 C-1.33 35 -1.66 35 -2 35 C-2.21788082 30.81981711 -2.41456252 26.63932293 -2.59204102 22.45727539 C-2.65529384 21.03610901 -2.72423471 19.61518352 -2.79907227 18.19458008 C-2.90593252 16.1470229 -2.99199609 14.09945798 -3.07421875 12.05078125 C-3.13182373 10.82012939 -3.18942871 9.58947754 -3.2487793 8.3215332 C-2.97726014 4.69639276 -2.17528594 2.87549552 0 0 Z " fill="#F9F0E0" transform="translate(765,414)"/>
<path d="M0 0 C0.33 0.99 0.66 1.98 1 3 C-7.91 3 -16.82 3 -26 3 C-26 2.67 -26 2.34 -26 2 C-23.16724047 1.66103732 -20.33395339 1.32870306 -17.5 1 C-16.31277344 0.85691406 -16.31277344 0.85691406 -15.1015625 0.7109375 C-10.02970596 0.12892118 -5.10506141 -0.09367085 0 0 Z " fill="#ECE7DF" transform="translate(635,182)"/>
<path d="M0 0 C-0.51776621 4.10447392 -2.64627444 5.95699523 -5.5625 8.75 C-6.80193359 9.94882812 -6.80193359 9.94882812 -8.06640625 11.171875 C-8.70449219 11.77515625 -9.34257813 12.3784375 -10 13 C-10.66 12.01 -11.32 11.02 -12 10 C-10.38113585 8.32737283 -8.7547271 6.66204463 -7.125 5 C-6.22007812 4.071875 -5.31515625 3.14375 -4.3828125 2.1875 C-2 0 -2 0 0 0 Z " fill="#302218" transform="translate(568,703)"/>
<path d="M0 0 C1.41623216 -0.05447047 2.83308191 -0.09300508 4.25 -0.125 C5.03890625 -0.14820313 5.8278125 -0.17140625 6.640625 -0.1953125 C9.20731941 0.0171622 10.7916067 0.71345895 13 2 C10.65147472 3.17426264 9.26225935 3.11508173 6.6484375 3.09765625 C5.79765625 3.09443359 4.946875 3.09121094 4.0703125 3.08789062 C3.18085937 3.07951172 2.29140625 3.07113281 1.375 3.0625 C0.4778125 3.05798828 -0.419375 3.05347656 -1.34375 3.04882812 C-3.56256648 3.03702591 -5.78125018 3.02056155 -8 3 C-8 2.67 -8 2.34 -8 2 C-5.36 1.67 -2.72 1.34 0 1 C0 0.67 0 0.34 0 0 Z " fill="#352419" transform="translate(598,693)"/>
<path d="M0 0 C0.99 0.33 1.98 0.66 3 1 C3 1.66 3 2.32 3 3 C1.88625 3.556875 0.7725 4.11375 -0.375 4.6875 C-3.15297552 6.25326802 -3.90536276 6.81895484 -5.4375 9.75 C-5.623125 10.4925 -5.80875 11.235 -6 12 C-7.125 10.25 -7.125 10.25 -8 8 C-7.18707449 4.74829797 -5.72608393 3.78436394 -3.0625 1.6875 C-2.051875 1.130625 -1.04125 0.57375 0 0 Z " fill="#34241A" transform="translate(217,210)"/>
<path d="M0 0 C1.91302307 3.26613695 2.35674661 5.99445248 2.625 9.75 C2.69976562 10.73484375 2.77453125 11.7196875 2.8515625 12.734375 C2.92503906 13.85585938 2.92503906 13.85585938 3 15 C2.01 15.495 2.01 15.495 1 16 C-0.72327319 13.0098145 -1.25156728 10.87966022 -1.1875 7.4375 C-1.18105469 6.67308594 -1.17460937 5.90867187 -1.16796875 5.12109375 C-1 3 -1 3 0 0 Z " fill="#E9E2D8" transform="translate(315,772)"/>
<path d="M0 0 C0.33 1.32 0.66 2.64 1 4 C0.52949219 4.38671875 0.05898438 4.7734375 -0.42578125 5.171875 C-3.6817612 7.89530336 -6.65453533 10.41281874 -9 14 C-8.50128936 9.54326841 -6.97995638 7.42312822 -3.9375 4.1875 C-3.20402344 3.39730469 -2.47054688 2.60710938 -1.71484375 1.79296875 C-1.14894531 1.20128906 -0.58304687 0.60960937 0 0 Z " fill="#2D2017" transform="translate(296,754)"/>
<path d="M0 0 C0.33 1.32 0.66 2.64 1 4 C-1.97 6.475 -1.97 6.475 -5 9 C-5.66 8.34 -6.32 7.68 -7 7 C-4.69 4.69 -2.38 2.38 0 0 Z " fill="#34261B" transform="translate(301,703)"/>
<path d="M0 0 C1.03159626 3.09478879 0.97482862 4.52631393 0.5625 7.6875 C0.46066406 8.49574219 0.35882812 9.30398438 0.25390625 10.13671875 C0.17011719 10.75160156 0.08632813 11.36648438 0 12 C-2.64752004 9.42215154 -4.94432065 7.08351902 -7 4 C-5 5 -3 6 -1 7 C-0.67 4.69 -0.34 2.38 0 0 Z " fill="#FCFBF8" transform="translate(833,696)"/>
<path d="M0 0 C2.64 0 5.28 0 8 0 C8 0.99 8 1.98 8 3 C5.36 3 2.72 3 0 3 C0 2.01 0 1.02 0 0 Z " fill="#45372F" transform="translate(687,328)"/>
<path d="M0 0 C4.62 0 9.24 0 14 0 C13.01 0.33 12.02 0.66 11 1 C11 1.66 11 2.32 11 3 C9.54077307 2.88590407 8.08259402 2.75834456 6.625 2.625 C5.40683594 2.52058594 5.40683594 2.52058594 4.1640625 2.4140625 C2 2 2 2 0 0 Z " fill="#EEEAE2" transform="translate(329,717)"/>
<path d="M0 0 C0.33 0 0.66 0 1 0 C1 4.95 1 9.9 1 15 C0.67 15 0.34 15 0 15 C0 12.36 0 9.72 0 7 C-0.99 6.67 -1.98 6.34 -3 6 C-2.01 4.02 -1.02 2.04 0 0 Z " fill="#EEE8DE" transform="translate(765,414)"/>
<path d="M0 0 C4.49797113 1.68673918 8.72886302 3.81673892 13 6 C12.67 6.66 12.34 7.32 12 8 C7.44328408 6.48109469 3.68276708 4.04597738 0 1 C0 0.67 0 0.34 0 0 Z " fill="#F2EFE9" transform="translate(762,806)"/>
<path d="M0 0 C-2.31 0.66 -4.62 1.32 -7 2 C-7 2.66 -7 3.32 -7 4 C-8.98 4 -10.96 4 -13 4 C-8.93522219 0.68795882 -5.26054188 -1.94834884 0 0 Z " fill="#231711" transform="translate(554,176)"/>
<path d="M0 0 C2.31 0 4.62 0 7 0 C7.33 0.99 7.66 1.98 8 3 C5.03 3 2.06 3 -1 3 C-0.67 2.01 -0.34 1.02 0 0 Z " fill="#4F3B2F" transform="translate(340,693)"/>
<path d="M0 0 C0.33 0 0.66 0 1 0 C1.06058594 0.75925781 1.12117188 1.51851562 1.18359375 2.30078125 C1.26738281 3.29464844 1.35117187 4.28851562 1.4375 5.3125 C1.55931641 6.79169922 1.55931641 6.79169922 1.68359375 8.30078125 C1.91812559 11.09375599 1.91812559 11.09375599 3 14 C1.68 13.67 0.36 13.34 -1 13 C-0.67 8.71 -0.34 4.42 0 0 Z " fill="#F2EBE2" transform="translate(496,512)"/>
<path d="M0 0 C4.16138263 -0.08159574 7.9472484 0.01751476 12 1 C12 1.33 12 1.66 12 2 C4.61538462 3.35384615 4.61538462 3.35384615 1.5 1.5625 C1.005 1.046875 0.51 0.53125 0 0 Z " fill="#1C1009" transform="translate(711,164)"/>
<path d="M0 0 C3 -0.3125 3 -0.3125 6 0 C6.66 0.66 7.32 1.32 8 2 C4.78548731 3.60725635 1.56387464 3.05748185 -2 3 C-1.34 2.01 -0.68 1.02 0 0 Z " fill="#4B3A2F" transform="translate(330,160)"/>
<path d="M0 0 C0.33 0.66 0.66 1.32 1 2 C1.66 2 2.32 2 3 2 C3.33 4.31 3.66 6.62 4 9 C1.47740939 7.02579865 1.0070192 6.03254358 0.3125 2.8125 C0.209375 1.884375 0.10625 0.95625 0 0 Z " fill="#2A1E16" transform="translate(548,780)"/>
<path d="M0 0 C0 0.99 0 1.98 0 3 C-2.31 3.33 -4.62 3.66 -7 4 C-6.67 3.01 -6.34 2.02 -6 1 C-3.90006779 0.25486277 -2.22568901 0 0 0 Z " fill="#EDE7DC" transform="translate(841,581)"/>
<path d="M0 0 C2.64 0 5.28 0 8 0 C8 0.99 8 1.98 8 3 C3.44615385 3.36923077 3.44615385 3.36923077 1.1875 1.5 C0.5996875 0.7575 0.5996875 0.7575 0 0 Z " fill="#45352A" transform="translate(393,181)"/>
</svg>
